<svg width="361" height="303" viewBox="0 0 361 303" fill="none" xmlns="http://www.w3.org/2000/svg">
<g clip-path="url(#clip0_1073_1182)">
<ellipse cx="178.5" cy="162" rx="162.5" ry="90" fill="white"/>
<path d="M96.1508 184.203C95.1789 184.203 94.197 184.188 93.2333 184.158L93.2552 183.458C94.639 183.501 96.0513 183.513 97.4416 183.494L97.4512 184.195C97.0184 184.2 96.585 184.203 96.1508 184.203ZM101.667 184.041L101.626 183.342C103.012 183.26 104.415 183.145 105.798 183.001L105.871 183.697C104.478 183.843 103.064 183.959 101.667 184.041ZM89.0215 183.932C87.624 183.825 86.2117 183.685 84.8238 183.514L84.9093 182.819C86.2867 182.988 87.688 183.127 89.0749 183.234L89.0215 183.932ZM110.055 183.162L109.95 182.47C111.327 182.261 112.714 182.018 114.073 181.748L114.209 182.435C112.84 182.707 111.442 182.951 110.055 183.162ZM80.6502 182.906C79.2696 182.672 77.876 182.403 76.5082 182.106L76.6569 181.421C78.0142 181.716 79.397 181.983 80.7672 182.215L80.6502 182.906ZM118.327 181.518L118.159 180.838C119.51 180.504 120.87 180.135 122.199 179.741L122.398 180.412C121.058 180.809 119.689 181.182 118.327 181.518ZM72.4078 181.117C71.0535 180.756 69.6907 180.36 68.3572 179.939L68.5683 179.271C69.8917 179.689 71.2441 180.082 72.5878 180.439L72.4078 181.117ZM126.413 179.12L126.183 178.459C127.495 178.003 128.814 177.51 130.105 176.994L130.365 177.644C129.065 178.164 127.735 178.661 126.413 179.12H126.413ZM64.3548 178.572C63.0395 178.088 61.7161 177.567 60.4215 177.022L60.6935 176.376C61.9781 176.917 63.2913 177.434 64.5967 177.914L64.3548 178.572ZM134.236 175.991L133.945 175.354C135.205 174.782 136.471 174.171 137.709 173.538L138.028 174.162C136.781 174.799 135.505 175.415 134.236 175.991H134.236ZM141.732 172.161L141.385 171.553C142.593 170.863 143.799 170.139 144.969 169.399L145.343 169.991C144.164 170.737 142.95 171.467 141.732 172.161H141.732ZM148.852 167.658L148.451 167.084C149.588 166.29 150.723 165.458 151.825 164.612L152.252 165.167C151.142 166.02 149.998 166.858 148.852 167.658ZM42.0639 166.672C40.9331 165.851 39.8034 164.99 38.706 164.115L39.1433 163.567C40.2322 164.436 41.3533 165.29 42.4754 166.105L42.0639 166.672ZM155.535 162.523L155.083 161.988C156.143 161.093 157.199 160.162 158.22 159.218L158.695 159.732C157.667 160.683 156.603 161.622 155.535 162.523H155.535ZM35.469 161.408C34.4158 160.486 33.3695 159.527 32.3592 158.557L32.8443 158.052C33.847 159.014 34.8854 159.966 35.9305 160.881L35.469 161.408ZM161.726 156.799L161.227 156.307C162.205 155.317 163.171 154.292 164.1 153.262L164.621 153.73C163.685 154.769 162.711 155.801 161.726 156.799ZM29.3831 155.569C28.4168 154.553 27.4625 153.503 26.5467 152.449L27.0759 151.99C27.9847 153.037 28.9317 154.078 29.8908 155.086L29.3831 155.569ZM167.373 150.533L166.832 150.089C167.715 149.014 168.584 147.906 169.417 146.794L169.978 147.213C169.139 148.334 168.263 149.451 167.373 150.533L167.373 150.533ZM23.8558 149.204C22.988 148.107 22.1336 146.976 21.3161 145.84L21.8847 145.431C22.696 146.558 23.5439 147.681 24.4052 148.769L23.8558 149.204ZM172.428 143.777L171.848 143.383C172.63 142.233 173.395 141.05 174.123 139.865L174.72 140.231C173.986 141.425 173.215 142.618 172.428 143.777L172.428 143.777ZM18.9333 142.365C18.1699 141.196 17.4227 139.992 16.7123 138.787L17.3158 138.431C18.0209 139.627 18.7624 140.822 19.52 141.982L18.9333 142.365ZM176.847 136.583L176.234 136.245C176.907 135.028 177.56 133.778 178.177 132.531L178.805 132.841C178.184 134.098 177.525 135.357 176.847 136.583ZM180.589 129.012L179.947 128.731C180.506 127.456 181.042 126.151 181.541 124.851L182.195 125.102C181.692 126.412 181.152 127.727 180.589 129.012ZM11.0666 127.501C10.5295 126.212 10.0151 124.894 9.53784 123.582L10.1964 123.342C10.6699 124.644 11.1803 125.952 11.7132 127.231L11.0666 127.501ZM183.619 121.121L182.954 120.901C183.391 119.584 183.804 118.238 184.18 116.9L184.855 117.089C184.475 118.438 184.059 119.795 183.619 121.121ZM8.1882 119.587C7.77133 118.252 7.37962 116.888 7.02399 115.533L7.70171 115.356C8.05461 116.7 8.44342 118.053 8.85703 119.378L8.1882 119.587ZM185.903 113.005L185.22 112.846C185.534 111.496 185.82 110.118 186.073 108.749L186.762 108.876C186.508 110.255 186.219 111.644 185.903 113.005V113.005ZM6.0483 111.431C5.75613 110.063 5.49168 108.669 5.26246 107.288L5.95353 107.173C6.18121 108.544 6.4436 109.927 6.73355 111.285L6.0483 111.431ZM187.429 104.713L186.735 104.618C186.923 103.246 187.082 101.847 187.208 100.46L187.906 100.523C187.779 101.921 187.619 103.331 187.429 104.713V104.713ZM4.66752 103.114C4.50228 101.727 4.36664 100.315 4.26417 98.9168L4.96311 98.8655C5.06455 100.254 5.19934 101.655 5.36339 103.031L4.66752 103.114ZM188.191 96.3167L187.491 96.2852C187.554 94.8974 187.585 93.4898 187.585 92.1017H188.286C188.286 93.5004 188.254 94.9186 188.191 96.3167ZM4.05189 94.7052C4.02794 93.8465 4.01581 92.9703 4.01562 92.1017C4.01562 91.5627 4.02024 91.0248 4.02948 90.4878L4.73013 90.5002C4.72089 91.033 4.71627 91.5668 4.71627 92.1017C4.71644 92.9638 4.72859 93.8335 4.75219 94.6861L4.05189 94.7052ZM4.8964 86.3188L4.19712 86.2751C4.28453 84.8756 4.4053 83.4622 4.55565 82.0739L5.2522 82.1493C5.10286 83.5272 4.98328 84.9298 4.89638 86.3188H4.8964ZM187.133 82.0459C186.993 80.6651 186.801 79.9919 186.597 78.6171L187.29 78.5148C187.495 79.9 187.671 80.9575 187.812 82.3487L187.133 82.0459ZM5.79768 78.0006L5.10524 77.8936C5.31992 76.508 5.56932 75.1115 5.8466 73.7424L6.53324 73.8812C6.25817 75.2399 6.01065 76.6258 5.79768 78.0006ZM185.89 74.4932C185.623 73.127 185.322 71.7516 184.994 70.4056L185.675 70.2401C186.005 71.5964 186.309 72.9823 186.578 74.3588L185.89 74.4932ZM7.45727 69.8001L6.77767 69.6298C7.1179 68.2733 7.49474 66.9055 7.89774 65.5642L8.56862 65.7656C8.16887 67.0966 7.79494 68.454 7.45727 69.8001ZM183.91 66.3634C183.519 65.0298 183.092 63.6884 182.641 62.3758L183.303 62.1481C183.759 63.4707 184.189 64.8228 184.583 66.1664L183.91 66.3634ZM9.86917 61.7758L9.20821 61.5436C9.67383 60.2196 10.1766 58.8893 10.7024 57.5895L11.3521 57.8522C10.8302 59.1418 10.3312 60.4621 9.86917 61.7758ZM181.189 58.4508C180.678 57.1619 180.131 55.8683 179.562 54.6059L180.201 54.3182C180.774 55.5904 181.326 56.8939 181.841 58.1926L181.189 58.4508ZM13.0139 54.0024L12.3772 53.71C12.9624 52.4361 13.5852 51.1586 14.2284 49.9131L14.851 50.2342C14.2126 51.4703 13.5946 52.7381 13.0139 54.0024ZM177.76 50.8382C177.133 49.6017 176.469 48.3627 175.786 47.156L176.395 46.8109C177.084 48.027 177.753 49.2754 178.385 50.5215L177.76 50.8382ZM16.8594 46.5554L16.2522 46.2059C16.9511 44.9927 17.6882 43.7783 18.443 42.5968L19.0335 42.9736C18.2845 44.1463 17.5529 45.3515 16.8594 46.5554ZM173.644 43.5665C172.904 42.3883 172.128 41.2146 171.34 40.0778L171.915 39.6787C172.71 40.8242 173.491 42.0068 174.237 43.194L173.644 43.5665ZM21.3691 39.4959L20.7964 39.0924C21.6042 37.9472 22.4487 36.8058 23.307 35.6999L23.8606 36.1291C23.0089 37.2268 22.1705 38.3595 21.3691 39.4959ZM168.878 36.6971C168.034 35.5916 167.154 34.4926 166.264 33.4308L166.801 32.9809C167.698 34.051 168.584 35.1581 169.435 36.272L168.878 36.6971ZM26.5025 32.8803L25.9692 32.4262C26.8756 31.3619 27.8204 30.3026 28.7771 29.2777L29.2892 29.7554C28.3398 30.7727 27.4023 31.8241 26.5025 32.8803ZM163.504 30.286C162.563 29.2619 161.586 28.2469 160.602 27.2695L161.096 26.7726C162.088 27.7577 163.071 28.7802 164.02 29.812L163.504 30.286ZM32.2145 26.7616L31.7246 26.261C32.7264 25.2812 33.7632 24.3125 34.8058 23.3819L35.2724 23.9045C34.2377 24.8279 33.2088 25.7892 32.2145 26.7616ZM157.567 24.3874C156.535 23.4522 155.47 22.5299 154.401 21.646L154.848 21.1063C155.925 21.9969 156.998 22.9262 158.037 23.8686L157.567 24.3874ZM38.4567 21.1894L38.0143 20.6464C39.098 19.7642 40.2179 18.8942 41.3431 18.0604L41.7605 18.623C40.6436 19.4506 39.5321 20.3139 38.4567 21.1894ZM45.1766 16.2106L44.7856 15.6296C45.9454 14.8495 47.1393 14.0856 48.3345 13.3588L48.6985 13.9572C47.5126 14.6785 46.3277 15.4367 45.1766 16.2106ZM52.3189 11.8677L51.9826 11.2531C53.2096 10.582 54.4677 9.93082 55.7219 9.31747L56.0298 9.94672C54.7852 10.5553 53.5367 11.2015 52.3189 11.8677ZM136.877 10.2449C135.63 9.62404 134.353 9.02421 133.081 8.46215L133.364 7.82161C134.646 8.38794 135.933 8.99241 137.189 9.61808L136.877 10.2449ZM59.8235 8.19831L59.545 7.5557C60.8273 7.00014 62.139 6.46732 63.4434 5.97195L63.6922 6.62685C62.3976 7.11831 61.096 7.64702 59.8235 8.19831ZM129.206 6.85548C127.909 6.3526 126.581 5.87277 125.259 5.42956L125.482 4.76541C126.814 5.21222 128.152 5.69562 129.459 6.20262L129.206 6.85548ZM67.6388 5.23173L67.4205 4.56622C68.752 4.12984 70.1105 3.71894 71.4581 3.34532L71.6454 4.02006C70.3081 4.39095 68.96 4.7986 67.6388 5.23173ZM121.261 4.19037C119.924 3.80956 118.561 3.45492 117.21 3.13636L117.37 2.45478C118.733 2.77573 120.106 3.13311 121.453 3.51665L121.261 4.19037ZM75.7039 2.99426L75.5479 2.31148C76.9129 1.99976 78.3035 1.71574 79.6806 1.46745L79.8052 2.15656C78.4383 2.40314 77.0585 2.68494 75.7039 2.99426ZM113.114 2.27044C111.75 2.01447 110.36 1.7867 108.983 1.59348L109.081 0.899925C110.468 1.09469 111.869 1.32416 113.243 1.58202L113.114 2.27044ZM83.9408 1.50833L83.8481 0.814092C85.235 0.629076 86.6455 0.473469 88.0403 0.352067L88.1012 1.04972C86.7171 1.17044 85.3175 1.32467 83.9408 1.50833ZM104.826 1.10649C103.446 0.976537 102.041 0.876336 100.65 0.809133L100.685 0.10944C102.085 0.177325 103.501 0.278214 104.891 0.409208L104.826 1.10649ZM92.2791 0.781089L92.2497 0.081396C93.5374 0.0277039 94.8498 0.000343193 96.1508 0L96.4679 0.000514987L96.4659 0.700908L96.1508 0.700393C94.8597 0.700715 93.5569 0.727904 92.2791 0.781082V0.781089Z" fill="#3F3D56"/>
<path d="M208.877 32.9903V259.988C208.875 262.692 207.798 265.284 205.885 267.196C203.972 269.107 201.378 270.181 198.672 270.182H106.485C105.145 270.184 103.817 269.922 102.578 269.411C101.34 268.899 100.214 268.149 99.266 267.202C98.318 266.255 97.5663 265.13 97.0538 263.892C96.5414 262.654 96.2784 261.327 96.2798 259.988V32.9903C96.2797 31.6506 96.5436 30.324 97.0564 29.0863C97.5692 27.8486 98.3209 26.724 99.2685 25.7767C100.216 24.8294 101.341 24.078 102.579 23.5654C103.818 23.0527 105.145 22.7889 106.485 22.7891H120.28V24.5576C120.28 26.7852 121.165 28.9217 122.74 30.4972C124.316 32.0727 126.453 32.9581 128.681 32.9588H175.569C177.362 32.9626 179.109 32.3878 180.55 31.3199C180.841 31.1081 181.118 30.8764 181.377 30.6265C182.198 29.8431 182.851 28.9012 183.296 27.858C183.742 26.8148 183.971 25.6919 183.969 24.5576V22.7891H198.672C200.013 22.7887 201.34 23.0522 202.578 23.5647C203.817 24.0773 204.942 24.8287 205.889 25.776C206.837 26.7234 207.589 27.8481 208.101 29.086C208.614 30.3238 208.878 31.6505 208.877 32.9903Z" fill="#3F3D56"/>
<path d="M195.4 104.621H109.758V169.758H195.4V104.621Z" fill="white"/>
<path d="M64.6599 93.6444C72.285 93.8079 78.3507 99.3316 78.3507 99.3316C78.3507 99.3316 72.0536 104.59 64.4285 104.427C56.8034 104.263 50.7378 98.7395 50.7378 98.7395C50.7378 98.7395 57.0348 93.4809 64.6599 93.6444Z" fill="white"/>
<path d="M26.3247 67.6271C33.2136 70.8987 41.113 68.6802 41.113 68.6802C41.113 68.6802 37.8433 61.1573 30.9544 57.8857C24.0654 54.6142 16.166 56.8327 16.166 56.8327C16.166 56.8327 19.4358 64.3555 26.3247 67.6271Z" fill="white"/>
<path d="M27.025 64.3771C34.6202 63.6832 41.2683 68.4908 41.2683 68.4908C41.2683 68.4908 35.6021 74.4233 28.0069 75.1172C20.4117 75.811 13.7637 71.0035 13.7637 71.0035C13.7637 71.0035 19.4298 65.0709 27.025 64.3771Z" fill="#3F3D56"/>
<path d="M54.8665 65.6878C54.1385 73.277 58.9181 79.9441 58.9181 79.9441C58.9181 79.9441 64.878 74.3065 65.606 66.7172C66.334 59.128 61.5544 52.4609 61.5544 52.4609C61.5544 52.4609 55.5945 58.0985 54.8665 65.6878Z" fill="#3F3D56"/>
<path d="M90.6363 112.233C86.6525 118.734 88.0231 126.821 88.0231 126.821C88.0231 126.821 95.8526 124.367 99.8363 117.866C103.82 111.364 102.449 103.277 102.449 103.277C102.449 103.277 94.62 105.731 90.6363 112.233Z" fill="#3F3D56"/>
<path d="M79.0791 182.919L79.6596 182.527C77.6133 179.558 76.496 176.049 76.4496 172.444C76.4659 167.171 79.0569 162.293 81.5627 157.577C82.0278 156.701 82.4913 155.828 82.9373 154.956C84.8091 151.4 86.3009 147.656 87.3878 143.788C91.2746 129.349 87.4479 112.314 77.1516 98.2193C68.9837 87.038 56.8077 77.2605 39.9283 68.3281L39.6006 68.9471C56.3838 77.8286 68.4818 87.5388 76.5858 98.6324C86.7582 112.558 90.5433 129.37 86.7111 143.606C85.6369 147.427 84.1629 151.125 82.3136 154.638C81.869 155.506 81.4072 156.376 80.9438 157.248C78.3981 162.04 75.7657 166.995 75.749 172.442C75.7953 176.187 76.9544 179.834 79.0791 182.919Z" fill="#3F3D56"/>
<path d="M6.6564 69.2489C10.3325 69.2489 13.3126 66.2699 13.3126 62.5951C13.3126 58.9204 10.3325 55.9414 6.6564 55.9414C2.98031 55.9414 0.000244141 58.9204 0.000244141 62.5951C0.000244141 66.2699 2.98031 69.2489 6.6564 69.2489Z" fill="#3F3D56"/>
<path d="M100.355 170.601L58.5718 167.121V105.862L100.355 103.773V170.601Z" fill="#FD961A"/>
<path d="M204.803 170.601L246.586 167.121V105.862L204.803 103.773V170.601Z" fill="#FD961A"/>
<path d="M167.103 129.069C165.86 127.995 164.327 127.312 162.698 127.105C161.068 126.898 159.414 127.176 157.942 127.905C156.663 128.523 155.288 128.916 153.875 129.067C153.84 126.01 154.402 122.975 155.528 120.132L155.713 119.655H153.257L153.187 119.913C152.913 120.918 152.698 121.938 152.541 122.968C152.408 122.522 152.237 122.088 152.028 121.672C150.305 118.258 146.325 116.861 146.156 116.804L145.817 116.688L145.709 117.029C145.655 117.199 144.412 121.228 146.135 124.643C147.368 127.087 149.758 128.497 151.078 129.121C149.407 129.014 147.774 128.577 146.272 127.836C145.336 127.354 144.283 127.145 143.233 127.234C142.184 127.322 141.181 127.705 140.339 128.337C135.753 131.82 133.124 136.926 133.124 142.345C133.124 149.464 137.735 155.983 144.873 158.953C145.517 159.22 146.207 159.357 146.904 159.357C147.872 159.357 148.822 159.096 149.655 158.603C150.761 157.959 152.018 157.619 153.298 157.617C154.577 157.614 155.835 157.949 156.944 158.588C157.661 159.011 158.467 159.261 159.297 159.32C160.128 159.378 160.961 159.243 161.73 158.925C168.826 155.943 173.411 149.434 173.411 142.345C173.411 137.27 171.17 132.555 167.103 129.069ZM153.793 120.355H154.695C153.681 123.071 153.164 125.946 153.169 128.845H153.008C152.791 125.991 153.057 123.121 153.793 120.355ZM146.76 124.327C145.453 121.735 146.026 118.646 146.28 117.604C147.269 118.019 150.092 119.39 151.402 121.987C152.709 124.578 152.136 127.667 151.882 128.71C150.893 128.294 148.068 126.918 146.76 124.327ZM161.458 158.279C160.79 158.555 160.066 158.673 159.344 158.621C158.622 158.57 157.922 158.352 157.3 157.984C156.082 157.282 154.701 156.913 153.296 156.916C151.891 156.919 150.511 157.293 149.297 158.001C148.675 158.37 147.977 158.59 147.256 158.643C146.535 158.697 145.811 158.581 145.142 158.307C138.267 155.446 133.824 149.18 133.824 142.345C133.824 137.146 136.353 132.244 140.762 128.895C141.608 128.256 142.64 127.912 143.7 127.914C144.483 127.914 145.255 128.1 145.951 128.459C147.87 129.374 149.968 129.855 152.094 129.868C154.22 129.881 156.323 129.424 158.253 128.532C159.602 127.865 161.118 127.61 162.611 127.8C164.104 127.99 165.508 128.617 166.646 129.6C170.557 132.952 172.71 137.478 172.71 142.345C172.71 149.152 168.293 155.406 161.458 158.279Z" fill="white"/>
<path d="M79.3486 122.45V121.628H79.6755V119.066C79.6767 118.877 79.6257 118.69 79.5281 118.527C79.4304 118.364 79.2898 118.231 79.1217 118.143C77.6758 117.389 76.1219 117.39 74.5032 118.147C74.3245 118.231 74.1736 118.365 74.0681 118.532C73.9625 118.7 73.9066 118.893 73.9069 119.091V121.628H74.2338V122.372C73.0306 122.709 71.9712 123.432 71.2182 124.428C70.4652 125.425 70.0601 126.641 70.065 127.89V133.433L70.6876 133.64L70.065 134.055V135.721L70.6876 135.928L70.065 136.343V138.009L70.6876 138.216L70.065 138.631V151.316C70.0661 152.306 70.4598 153.254 71.1597 153.954C71.8596 154.654 72.8085 155.047 73.7983 155.048H79.302C80.2896 155.047 81.2364 154.655 81.9347 153.956C82.6331 153.258 83.0259 152.312 83.027 151.325V138.631L82.4043 138.216L83.027 138.009V136.343L82.4043 135.928L83.027 135.721V134.055L82.4043 133.64L83.027 133.433V127.604C83.0228 126.47 82.6668 125.365 82.0079 124.442C81.3491 123.519 80.4199 122.823 79.3486 122.45ZM74.7998 118.781C76.2307 118.113 77.5386 118.107 78.7974 118.764C78.8516 118.794 78.8967 118.838 78.9279 118.891C78.9591 118.944 78.9753 119.005 78.9748 119.066V120.437H74.6076V119.091C74.607 119.027 74.6247 118.963 74.6588 118.908C74.6928 118.853 74.7417 118.809 74.7998 118.781ZM82.3263 132.928L80.8238 133.429L82.3263 134.43V135.216L80.8238 135.717L82.3263 136.718V137.504L80.8238 138.004L82.3263 139.006V151.325C82.3254 152.126 82.0065 152.895 81.4395 153.461C80.8725 154.028 80.1038 154.347 79.302 154.348H73.7983C72.9942 154.347 72.2234 154.027 71.6549 153.459C71.0863 152.891 70.7665 152.12 70.7656 151.316V139.006L72.2682 138.004L70.7656 137.504V136.718L72.2682 135.717L70.7656 135.216V134.43L72.2682 133.429L70.7656 132.928V127.89C70.7612 126.752 71.1448 125.646 71.8532 124.754C72.5616 123.862 73.5527 123.238 74.6632 122.985L74.9345 122.922V121.628H78.6479V122.969L78.9006 123.042C79.8868 123.333 80.7529 123.934 81.3701 124.756C81.9873 125.577 82.3227 126.577 82.3263 127.604V132.928Z" fill="white"/>
<path d="M244.023 132.039L242.259 131.686L242.674 130.856L241.865 130.694L242.005 129.853L241.122 129.706V128.908L240.405 128.703L241.085 127.853H239.905L240.152 127.238L239.278 127.092L239.575 126.054H238.63V125.086H238.28C237.176 125.086 236.561 126.396 236.359 126.921C230.265 127.983 212.574 140.233 210.555 141.641C209.716 141.369 208.472 142.007 208.212 142.149L207.801 142.373L208.394 142.966L208.218 143.496L209.306 143.904L209.068 144.499L209.753 145.071L209.138 145.533L210.064 146.089L209.901 146.902L210.937 147.05V147.863L211.538 147.983L211.238 149.033H211.906V149.864H212.557L212.852 150.748L213.155 150.687C213.86 150.546 214.464 149.571 214.7 149.139C220.568 148.092 238.684 135.351 240.448 134.103C242.506 134.35 243.263 133.8 243.344 133.735L243.679 133.467L242.879 132.801L244.023 132.039ZM240.403 133.391L240.266 133.373L240.154 133.453C239.953 133.595 220.085 147.666 214.421 148.475L214.24 148.501L214.157 148.665C213.94 149.107 213.647 149.508 213.291 149.849L213.062 149.163H212.606V148.333H212.167L212.42 147.446L211.637 147.289V146.442L210.734 146.313L210.848 145.742L210.391 145.468L210.882 145.1L209.907 144.287L210.222 143.499L209.096 143.077L209.196 142.777L208.979 142.559C209.505 142.34 210.141 142.178 210.415 142.341L210.61 142.458L210.796 142.328C210.995 142.188 230.728 128.391 236.666 127.582L236.888 127.552L236.954 127.338C237.056 127.007 237.418 126.171 237.929 125.884V126.755H238.646L238.389 127.654L239.177 127.786L238.87 128.554H239.627L239.2 129.088L240.421 129.436V130.299L241.199 130.429L241.063 131.248L241.638 131.363L241.222 132.193L242.227 132.394L241.71 132.739L242.453 133.358C241.778 133.496 241.082 133.507 240.403 133.391Z" fill="white"/>
<path d="M152.579 199.522C158.19 199.522 162.738 194.975 162.738 189.367C162.738 183.758 158.19 179.211 152.579 179.211C146.968 179.211 142.419 183.758 142.419 189.367C142.419 194.975 146.968 199.522 152.579 199.522Z" fill="#FD961A"/>
<path d="M158.593 188.215H153.2V182.824H151.193V188.215H145.8V190.221H151.193V195.613H153.2V190.221H158.593V188.215Z" fill="white"/>
<path d="M184.621 189.717L179.366 187.266V188.666H167.105V190.768H179.366V192.168L184.621 189.717Z" fill="white"/>
<path d="M120.537 189.717L125.791 187.266V188.666H138.053V190.768H125.791V192.168L120.537 189.717Z" fill="#FD961A"/>
<path d="M280.972 270.262H24.1851V270.962H280.972V270.262Z" fill="#3F3D56"/>
<path d="M186.21 55.9414H118.948V56.6418H186.21V55.9414Z" fill="white"/>
<path d="M186.373 247.148H119.11V247.849H186.373V247.148Z" fill="white"/>
<path d="M294.448 177.988L292.696 184.642C292.696 184.642 286.39 198.65 292.696 199.35C299.002 200.051 299.352 181.14 299.352 181.14L294.448 177.988Z" fill="#A0616A"/>
<path d="M305.307 130.008L292.696 179.736C292.696 179.736 297.6 181.137 300.053 182.887L305.307 130.008Z" fill="#D0CDE1"/>
<path d="M344.894 167.83L348.398 222.11C348.398 222.11 356.805 243.472 356.455 263.784C356.455 263.784 353.302 271.838 355.754 273.239C358.207 274.64 359.608 275.691 358.207 276.741C356.805 277.792 355.754 280.243 356.805 280.944C357.856 281.644 358.207 282.694 357.856 282.694H347.347C347.347 282.694 349.449 277.442 346.296 276.041C343.143 274.64 344.894 271.138 344.894 271.138L321.423 202.5L302.856 265.535C302.856 265.535 306.008 267.636 303.556 268.687C301.104 269.737 300.053 267.636 301.104 269.737C302.155 271.838 300.754 272.889 300.754 273.239C300.754 273.589 290.244 272.189 290.244 272.189C290.244 272.189 295.499 267.636 293.046 266.585C290.594 265.535 289.543 264.484 290.244 263.784C290.944 263.083 293.747 256.43 293.747 256.43C293.747 256.43 295.148 231.216 295.499 230.165C295.849 229.114 295.499 224.212 295.499 221.76C295.499 219.309 295.148 209.503 296.199 207.052C297.25 204.601 298.301 174.484 303.906 170.982C309.512 167.48 344.894 167.83 344.894 167.83Z" fill="#2F2E41"/>
<path d="M300.403 271.489C300.403 271.489 307.41 285.847 302.505 287.598C297.6 289.349 291.295 287.948 289.893 290.05C288.492 292.151 273.078 294.602 272.727 289.349C272.377 284.096 289.543 274.291 289.543 274.291L291.779 270.691L300.403 271.489Z" fill="#2F2E41"/>
<path d="M357.156 281.993C357.156 281.993 364.162 296.351 359.258 298.102C354.353 299.853 348.047 298.452 346.646 300.553C345.245 302.655 329.83 305.106 329.48 299.853C329.13 294.6 346.295 284.795 346.295 284.795L348.532 281.195L357.156 281.993Z" fill="#2F2E41"/>
<path d="M324.751 101.82C331.135 101.82 336.311 96.646 336.311 90.2635C336.311 83.8811 331.135 78.707 324.751 78.707C318.366 78.707 313.19 83.8811 313.19 90.2635C313.19 96.646 318.366 101.82 324.751 101.82Z" fill="#A0616A"/>
<path d="M332.633 96.3906L331.232 106.546L320.722 114.601L317.919 110.749V97.4412L332.633 96.3906Z" fill="#A0616A"/>
<path d="M316.168 109.348C316.168 109.348 327.028 110.399 332.633 106.547L343.843 172.734C343.843 172.734 304.257 175.886 302.505 173.785V153.123L309.511 119.504L316.168 109.348Z" fill="#3F3D56"/>
<path d="M331.668 103.383L335.435 106.547C335.435 106.547 350.85 108.999 349.799 113.201L345.595 162.929L346.996 179.738C346.996 179.738 335.085 176.587 325.977 179.738C316.868 182.89 324.105 112.009 324.105 112.009C324.105 112.009 332.455 104.421 331.668 103.383Z" fill="#D0CDE1"/>
<path d="M317.919 107.215C317.919 107.215 306.709 115.301 305.308 120.554C303.906 125.807 299.352 181.138 299.352 181.138C299.352 181.138 301.454 180.087 302.505 181.838C303.556 183.589 319.671 109.985 317.919 107.215Z" fill="#D0CDE1"/>
<path d="M348.748 180.44L346.237 188.631C346.237 188.631 345.595 203.903 337.187 201.802C328.779 199.701 339.64 181.84 339.64 181.84L342.092 177.988L348.748 180.44Z" fill="#A0616A"/>
<path d="M313.195 89.7564C313.195 89.7564 311.944 87.8798 312.425 85.8589C312.713 84.7115 312.826 83.5274 312.762 82.3463C312.762 82.3463 313.773 79.0743 314.784 77.2458C315.795 75.4173 315.313 74.6475 318.49 74.07C321.667 73.4926 320.367 69.3545 328.743 73.8295C329.026 74.2239 329.419 74.5257 329.873 74.697C330.327 74.8683 330.821 74.9013 331.294 74.7918C333.027 74.455 333.653 76.8609 333.653 76.8609C333.653 76.8609 334.808 76.1872 335.241 77.1496C335.674 78.1119 338.763 76.572 338.763 83.0679C338.763 89.5638 335.248 95.3663 335.248 95.3663C335.248 95.3663 335.506 84.4394 329.778 83.3327C324.05 82.226 317.889 79.0021 316.396 83.1402C315.591 85.4628 314.517 87.6832 313.195 89.7564Z" fill="#2F2E41"/>
<path d="M335.374 92.3556C335.998 92.3556 336.504 91.6814 336.504 90.8497C336.504 90.018 335.998 89.3438 335.374 89.3438C334.75 89.3438 334.244 90.018 334.244 90.8497C334.244 91.6814 334.75 92.3556 335.374 92.3556Z" fill="#A0616A"/>
<path d="M346.996 110.749C346.996 110.749 352.601 109.348 354.353 118.803C356.104 128.259 358.206 155.224 358.206 155.224L349.799 183.59C349.799 183.59 341.391 179.037 339.639 179.738L346.255 155.112L340.69 130.01C340.69 130.01 345.595 110.749 346.996 110.749Z" fill="#D0CDE1"/>
<path opacity="0.15" d="M338.846 130.488L346.203 155.002L338.846 179.866L343.05 155.002L338.846 130.488Z" fill="black"/>
</g>
<defs>
<clipPath id="clip0_1073_1182">
<rect width="361" height="303" fill="white"/>
</clipPath>
</defs>
</svg>
