<svg width="314" height="296" viewBox="0 0 314 296" fill="none" xmlns="http://www.w3.org/2000/svg">
<g clip-path="url(#clip0_1075_782)">
<path d="M227.965 167.969V249.737L241.628 272.027L242.667 273.722H296.575L297.664 167.969H227.965Z" fill="#E6E6E6"/>
<path opacity="0.1" d="M227.965 167.969V249.737L241.628 272.027L242.466 167.969H227.965Z" fill="black"/>
<path d="M97.8248 165.789V247.557L84.1626 269.847L83.1228 271.543H29.2152L28.126 165.789H97.8248Z" fill="#E6E6E6"/>
<path opacity="0.1" d="M97.8249 165.789V247.557L84.1626 269.847L83.3242 165.789H97.8249Z" fill="black"/>
<path d="M314 164.151V169.057H21.0471V161.97L48.2731 147.797H290.041L314 164.151Z" fill="#E6E6E6"/>
<path opacity="0.1" d="M314 164.154V169.059H21.0471V161.973L314 164.154Z" fill="black"/>
<path d="M62.9755 188.683H49.9066L44.4614 184.867H68.9651L62.9755 188.683Z" fill="#3F3D56"/>
<path d="M62.9755 204.492H49.9066L44.4614 200.676H68.9651L62.9755 204.492Z" fill="#3F3D56"/>
<path d="M62.9755 226.84H49.9066L44.4614 223.023H68.9651L62.9755 226.84Z" fill="#3F3D56"/>
<path d="M62.9755 249.191H49.9066L44.4614 245.375H68.9651L62.9755 249.191Z" fill="#3F3D56"/>
<path d="M262.815 190.863H275.884L281.329 187.047H256.825L262.815 190.863Z" fill="#3F3D56"/>
<path d="M262.815 206.671H275.884L281.329 202.855H256.825L262.815 206.671Z" fill="#3F3D56"/>
<path d="M262.815 229.023H275.884L281.329 225.207H256.825L262.815 229.023Z" fill="#3F3D56"/>
<path d="M262.815 251.37H275.884L281.329 247.555H256.825L262.815 251.37Z" fill="#3F3D56"/>
<path d="M271.714 53.2422H161.695C161.149 53.2421 160.608 53.3498 160.103 53.5591C159.598 53.7684 159.14 54.0752 158.753 54.462C158.367 54.8488 158.06 55.3081 157.851 55.8135C157.642 56.3188 157.535 56.8605 157.535 57.4076V131.601C157.535 132.148 157.642 132.689 157.851 133.195C158.06 133.7 158.367 134.159 158.753 134.546C159.14 134.933 159.598 135.24 160.103 135.449C160.608 135.658 161.149 135.766 161.695 135.766H203.46L201.895 145.767C201.895 145.767 192.953 150.522 199.24 150.662C205.528 150.802 235.148 150.662 235.148 150.662C235.148 150.662 240.876 150.662 231.794 145.627L230.323 135.766H271.714C272.261 135.766 272.802 135.658 273.307 135.449C273.812 135.24 274.27 134.933 274.657 134.546C275.043 134.159 275.35 133.7 275.559 133.195C275.768 132.689 275.875 132.148 275.875 131.601V57.4076C275.875 56.8605 275.768 56.3188 275.559 55.8135C275.35 55.3081 275.043 54.8488 274.657 54.462C274.27 54.0752 273.812 53.7684 273.307 53.5591C272.802 53.3498 272.261 53.2421 271.714 53.2422Z" fill="#3F3D56"/>
<path d="M271.893 57.6484H161.517V119.471H271.893V57.6484Z" fill="#F2F2F2"/>
<path d="M216.705 56.387C217.091 56.387 217.403 56.0739 217.403 55.6876C217.403 55.3014 217.091 54.9883 216.705 54.9883C216.319 54.9883 216.006 55.3014 216.006 55.6876C216.006 56.0739 216.319 56.387 216.705 56.387Z" fill="#F2F2F2"/>
<path d="M216.705 132.757C218.171 132.757 219.36 131.567 219.36 130.099C219.36 128.631 218.171 127.441 216.705 127.441C215.239 127.441 214.05 128.631 214.05 130.099C214.05 131.567 215.239 132.757 216.705 132.757Z" fill="#F2F2F2"/>
<path d="M212.568 158.215V159.614H137.4V158.495L137.504 158.215L139.356 153.18H211.031L212.568 158.215Z" fill="#3F3D56"/>
<path d="M241.495 156.847C241.358 157.433 240.841 158.052 239.673 158.636C235.482 160.734 226.959 158.077 226.959 158.077C226.959 158.077 220.392 156.958 220.392 154.021C220.576 153.894 220.769 153.78 220.968 153.678C222.73 152.745 228.573 150.441 238.933 153.775C239.696 154.015 240.378 154.463 240.903 155.067C241.135 155.296 241.31 155.577 241.413 155.886C241.516 156.195 241.544 156.525 241.495 156.847Z" fill="#3F3D56"/>
<path opacity="0.1" d="M241.495 156.847C236.365 158.815 231.792 158.962 227.099 155.699C225.324 154.386 223.175 153.677 220.968 153.678C222.73 152.745 228.573 150.441 238.933 153.775C239.696 154.015 240.378 154.463 240.903 155.067C241.135 155.296 241.31 155.577 241.413 155.886C241.516 156.195 241.544 156.525 241.495 156.847Z" fill="black"/>
<path d="M235.062 155.697C236.066 155.697 236.879 155.447 236.879 155.138C236.879 154.829 236.066 154.578 235.062 154.578C234.059 154.578 233.246 154.829 233.246 155.138C233.246 155.447 234.059 155.697 235.062 155.697Z" fill="#F2F2F2"/>
<path opacity="0.1" d="M212.568 158.215V159.614H137.4V158.495L137.504 158.215H212.568Z" fill="black"/>
<path d="M41.7944 0.000963295C41.0315 -0.0617406 40.2677 0.109095 39.604 0.490832C38.9523 0.937606 38.5415 1.72031 38.1223 2.44866C36.5193 5.26668 34.3491 7.72072 31.7493 9.65532C29.8557 11.0441 27.4482 12.7757 27.7722 15.3362C27.9431 16.1818 28.2552 16.9925 28.6952 17.7343C30.4421 21.2645 35.2092 23.9927 34.7403 28.021C36.4759 25.1122 34.1544 23.6739 35.89 20.7652C36.7165 19.38 38.1523 17.8163 39.4002 18.6862C39.8181 18.9775 40.0924 19.4999 40.5275 19.7555C41.5656 20.3653 42.67 19.1995 43.5889 18.3737C46.7576 15.526 51.2638 16.272 55.2069 17.1593C57.0684 17.5782 59.1131 18.1277 60.2135 19.9088C61.6604 22.2507 58.8389 24.7798 58.126 27.4275C58.0678 27.6531 58.0651 27.8894 58.118 28.1163C58.1709 28.3432 58.278 28.5539 58.43 28.7304C58.582 28.9068 58.7744 29.0438 58.9908 29.1296C59.2072 29.2154 59.4411 29.2474 59.6726 29.2229C60.8558 29.1061 62.2573 29.0103 62.3273 28.4906C63.8159 28.5436 65.6399 28.3749 66.2777 26.8231C66.4726 26.2092 66.5757 25.5697 66.5835 24.9255C66.8175 22.319 67.9226 19.941 68.6547 17.4602C69.3868 14.9794 69.7051 12.072 68.4697 9.87246C68.0287 9.14064 67.4834 8.47719 66.851 7.9031C59.8402 1.11099 50.6225 -0.00911873 41.7944 0.000963295Z" fill="#2F2E41"/>
<path d="M36.2649 33.1075C36.2649 33.1075 37.7896 45.8275 32.1989 46.8451C26.6083 47.8628 37.2814 65.162 37.2814 65.162L62.6936 68.2148L56.5946 47.8627C56.5946 47.8627 52.5287 46.3363 55.0699 36.1603C57.6111 25.9842 36.2649 33.1075 36.2649 33.1075Z" fill="#FFB8B8"/>
<path d="M20.7634 251.637L22.7966 279.621H33.4693L30.4202 251.637H20.7634Z" fill="#FFB8B8"/>
<path d="M99.0332 198.725L100.558 222.129L112.248 217.041L107.673 197.707L99.0332 198.725Z" fill="#FFB8B8"/>
<path d="M13.1399 144.792C13.1399 144.792 13.6481 174.303 16.6976 183.97C19.7471 193.637 19.2388 194.146 18.7306 195.672C18.2223 197.199 17.7141 196.181 17.7141 198.725C17.7141 201.269 16.6976 241.464 17.7141 245.026C18.7306 248.588 14.6646 254.693 17.7141 255.202C20.7636 255.711 34.9944 255.202 35.5026 252.149C36.0109 249.097 31.4367 248.079 33.4697 246.044C35.5026 244.009 38.5521 202.287 38.5521 202.287L45.6675 173.285L58.8818 158.021H86.8352L95.4754 191.602C95.4754 191.602 91.9176 201.269 94.4589 201.269C97.0001 201.269 112.247 204.322 112.247 193.128C112.247 181.935 107.165 148.862 106.148 147.845C105.132 146.827 106.657 143.266 105.132 141.739C103.607 140.213 85.8187 129.528 79.2116 127.493C72.6044 125.457 63.3357 123.035 63.3357 123.035L13.1399 144.792Z" fill="#2F2E41"/>
<path d="M112.248 212.97C112.248 212.97 104.624 210.426 101.066 218.058C97.5085 225.69 99.0333 227.725 99.0333 227.725C99.0333 227.725 110.723 231.795 112.756 229.76C113.64 228.875 116.449 228.567 119.34 228.502C123.743 228.403 124.915 222.167 120.756 220.714C120.632 220.671 120.507 220.633 120.38 220.602C116.314 219.584 112.248 212.97 112.248 212.97Z" fill="#2F2E41"/>
<path d="M47.7004 41.5047C56.1213 41.5047 62.9478 34.6708 62.9478 26.2406C62.9478 17.8105 56.1213 10.9766 47.7004 10.9766C39.2796 10.9766 32.4531 17.8105 32.4531 26.2406C32.4531 34.6708 39.2796 41.5047 47.7004 41.5047Z" fill="#FFB8B8"/>
<path d="M27.8789 53.2069C27.8789 53.2069 52.7829 58.2949 58.8818 50.1541C64.9807 42.0132 67.522 73.0502 67.522 73.0502L70.5714 105.614L65.9972 123.422C65.9972 123.422 42.1098 142.756 34.4861 144.283C26.8625 145.809 15.1729 146.827 15.1729 146.827C15.1729 146.827 18.7306 90.3495 18.7306 89.3318C18.7306 88.3142 27.8789 53.2069 27.8789 53.2069Z" fill="#FD961A"/>
<path d="M35.453 43.6649C35.453 43.6649 29.9121 40.4872 28.3874 43.54C26.8626 46.5928 12.6318 54.2249 11.1071 54.2249C9.58236 54.2249 14.1566 96.4555 12.1236 101.544C10.0906 106.632 0.433974 143.774 6.02466 146.827C11.6153 149.88 7.54939 143.774 13.1401 151.406C18.7308 159.038 46.1759 159.038 47.7006 155.985C49.2254 152.933 35.5028 130.036 38.044 108.667C40.5852 87.2971 44.6512 57.7865 41.0935 53.7161C37.5358 49.6457 35.453 43.6649 35.453 43.6649Z" fill="#2F2E41"/>
<path d="M53.7993 47.0991L54.5073 44.6602C54.5073 44.6602 75.6538 51.6783 76.6703 56.2576C77.6868 60.8368 77.1785 92.8914 73.6208 95.4354C70.0631 97.9794 64.9807 102.05 68.5384 108.155C72.0961 114.261 76.162 120.876 79.2115 121.384C82.261 121.893 87.8517 125.455 86.3269 129.016C84.8022 132.578 66.5054 125.964 66.5054 125.964C66.5054 125.964 54.3076 116.805 54.8158 102.559C55.3241 88.3121 53.7993 47.0991 53.7993 47.0991Z" fill="#2F2E41"/>
<path d="M71.5877 107.141L59.3899 130.037C59.3899 130.037 41.6013 148.354 51.7662 150.389C61.9311 152.424 67.5218 133.598 67.5218 133.598L80.7361 114.773L71.5877 107.141Z" fill="#FFB8B8"/>
<path d="M42.5373 3.99385C41.9228 3.94826 41.3072 4.06779 40.7542 4.34008C40.2542 4.70565 39.8421 5.17842 39.5481 5.72386C38.1924 7.76526 36.4253 9.50028 34.3602 10.8175C32.8187 11.7991 30.8589 13.0229 31.1227 14.8327C31.2658 15.4395 31.5206 16.0143 31.8741 16.5276C33.301 19.048 33.8691 21.9651 33.4923 24.8375L37.7309 18.6699C38.4037 17.6908 39.5725 16.5856 40.5884 17.2005C40.9285 17.4063 41.1519 17.7756 41.506 17.9562C42.3511 18.3873 43.2501 17.5632 43.9981 16.9796C46.5776 14.9669 50.2458 15.4941 53.4556 16.1212C54.971 16.4173 56.6355 16.8057 57.5313 18.0646C59.0199 20.1566 57.4655 23.1795 58.3343 25.5963C58.5775 25.4258 58.784 25.2082 58.9417 24.9564C59.0993 24.7045 59.2048 24.4235 59.252 24.1301C60.4638 24.1676 61.9485 24.0483 62.4677 22.9516C62.6257 22.5217 62.7098 22.0683 62.7166 21.6104C62.9072 19.7681 63.8068 18.0873 64.4027 16.3339C64.9986 14.5805 65.2578 12.5256 64.2521 10.9709C63.8842 10.4442 63.4401 9.9751 62.9345 9.57901C57.2274 4.7784 49.7238 3.98672 42.5373 3.99385Z" fill="#2F2E41"/>
<path d="M71.5879 54.2227L76.3233 55.481C76.3233 55.481 87.3435 83.7332 84.8023 103.068C82.261 122.402 80.7363 118.332 80.7363 118.332C80.7363 118.332 76.6704 109.173 67.522 111.209L71.5879 54.2227Z" fill="#2F2E41"/>
<path d="M21.4677 275.924C20.2421 277.592 20.4878 279.975 19.4022 281.737C18.4611 283.264 16.6876 284.065 15.5105 285.418C15.1349 285.868 14.8001 286.35 14.5099 286.859C13.418 288.69 12.5305 291.037 13.6059 292.878C14.471 294.358 16.2893 294.937 17.957 295.332C20.0648 295.83 22.2549 296.229 24.387 295.848C26.5192 295.467 28.603 294.16 29.3632 292.13C29.5126 291.619 29.6902 291.118 29.8953 290.627C31.0509 288.349 34.6758 288.325 35.8585 286.061C36.6862 284.477 35.9253 282.562 35.1648 280.944L32.8419 276.004C32.0711 274.365 28.9462 275.307 27.3171 274.915C25.1924 274.402 22.9962 273.838 21.4677 275.924Z" fill="#2F2E41"/>
<path d="M4.49976 117.315L25.846 150.388C25.846 150.388 39.0603 167.178 43.1263 159.546C47.1922 151.914 28.8955 139.194 28.8955 139.194L15.1729 113.754L4.49976 117.315Z" fill="#FFB8B8"/>
<path d="M15.1729 55.2403L11.1069 54.2227C11.1069 54.2227 2.97504 56.7667 0.942071 67.4515C-1.0909 78.1364 0.433825 120.876 2.97504 121.385C5.51626 121.893 15.5261 113.943 17.1283 115.629C18.7306 117.314 13.6482 108.665 15.1729 104.085C16.6976 99.5061 15.1729 55.2403 15.1729 55.2403Z" fill="#2F2E41"/>
<path d="M206.258 77.9531H193.122V81.119H206.258V77.9531Z" fill="#FD961A"/>
<path d="M251.748 77.9531H247.126V81.119H251.748V77.9531Z" fill="#FD961A"/>
<path d="M260.992 77.9531H256.37V81.119H260.992V77.9531Z" fill="#FD961A"/>
<path d="M242.261 77.9531H210.88V81.119H242.261V77.9531Z" fill="#FD961A"/>
<path d="M189.716 98.4102H176.58V101.576H189.716V98.4102Z" fill="#FD961A"/>
<path d="M235.206 98.4102H230.584V101.576H235.206V98.4102Z" fill="#FD961A"/>
<path d="M244.45 98.4102H239.828V101.576H244.45V98.4102Z" fill="#FD961A"/>
<path d="M225.719 98.4102H194.338V101.576H225.719V98.4102Z" fill="#FD961A"/>
<path d="M243.963 85.0156H230.827V88.1815H243.963V85.0156Z" fill="#FD961A"/>
<path d="M261.722 85.0156H248.585V88.1815H261.722V85.0156Z" fill="#FD961A"/>
<path d="M181.202 85.0156H176.58V88.1815H181.202V85.0156Z" fill="#FD961A"/>
<path d="M190.446 85.0156H185.824V88.1815H190.446V85.0156Z" fill="#FD961A"/>
<path d="M226.449 85.0156H195.068V88.1815H226.449V85.0156Z" fill="#FD961A"/>
<path d="M216.718 91.8359H203.582V95.0018H216.718V91.8359Z" fill="#FD961A"/>
<path d="M198.96 91.8359H185.824V95.0018H198.96V91.8359Z" fill="#FD961A"/>
<path d="M181.202 91.8359H176.58V95.0018H181.202V91.8359Z" fill="#FD961A"/>
<path d="M261.722 91.8359H257.1V95.0018H261.722V91.8359Z" fill="#FD961A"/>
<path d="M252.477 91.8359H221.097V95.0018H252.477V91.8359Z" fill="#FD961A"/>
</g>
<defs>
<clipPath id="clip0_1075_782">
<rect width="314" height="296" fill="white"/>
</clipPath>
</defs>
</svg>
