<svg width="214" height="47" viewBox="0 0 214 47" fill="none" xmlns="http://www.w3.org/2000/svg">
<path d="M74.4424 23.049C74.4424 26.6299 73.6354 30.009 72.1728 33.0352C69.4997 38.6335 64.6075 42.9709 58.6561 44.9884C56.6387 45.644 54.5204 46.0475 52.3013 46.1484C46.5517 45.8962 41.3568 43.5762 37.4733 39.8944C34.9515 37.5239 32.9341 34.5987 31.6732 31.3204C30.7149 28.7482 30.1602 25.9742 30.1602 23.049C30.1602 17.8541 31.875 13.0123 34.8002 9.17924C38.5324 4.18614 44.2821 0.756531 50.8387 0.100871C51.343 0.0504354 51.8474 0 52.3013 0C55.7813 0.151306 59.0596 1.05914 61.9849 2.5722C68.8441 6.15312 73.6859 13.0628 74.3415 21.1829C74.4424 21.7881 74.4424 22.3933 74.4424 23.049Z" fill="#3D2A13"/>
<path opacity="0.19" d="M74.4424 23.049C74.4424 26.6299 73.6354 30.009 72.1728 33.0352C69.4997 38.6335 64.6075 42.9709 58.6561 44.9884C56.6387 45.644 54.5204 46.0475 52.3013 46.1484C46.5517 45.8962 41.3568 43.5762 37.4733 39.8944C35.2541 37.2717 33.2871 34.3969 31.6732 31.3204C30.7149 28.7482 30.1602 25.9742 30.1602 23.049C30.1602 17.8541 31.875 13.0123 34.8002 9.17924C38.5324 4.18614 44.2821 0.756531 50.8387 0.100871C51.343 0.0504354 51.8474 0 52.3013 0C55.7813 0.151306 59.0596 1.05914 61.9849 2.5722C68.8441 6.15312 73.6859 13.0628 74.3415 21.1829C74.4424 21.7881 74.4424 22.3933 74.4424 23.049Z" fill="#FD961A"/>
<path d="M74.442 23.049C74.442 26.6299 73.635 30.009 72.1724 33.0352C69.4993 38.6335 64.6071 42.9709 58.6557 44.9884C44.6851 39.4909 34.7998 25.8733 34.7998 9.9862C34.7998 9.73403 34.7998 9.43141 34.7998 9.17924C38.532 4.18614 44.2817 0.756531 50.8383 0.100871C51.3426 0.0504354 51.847 0 52.3009 0C55.7809 0.151306 59.0592 1.05914 61.9845 2.5722C68.8437 6.15312 73.6855 13.0628 74.3411 21.1829C74.442 21.7881 74.442 22.3933 74.442 23.049Z" fill="#784B15"/>
<path d="M74.4421 23.049C74.4421 26.6299 73.6351 30.0091 72.1725 33.0352C71.7185 33.0856 71.2646 33.136 70.8107 33.136C58.454 32.6317 48.6191 22.4437 48.6191 9.98621C48.6191 6.45573 49.4261 3.07656 50.8383 0.100871C51.3427 0.0504354 51.847 0 52.3009 0C55.781 0.151306 59.0593 1.05914 61.9845 2.5722C68.8437 6.15312 73.6855 13.0628 74.3412 21.1829C74.4421 21.7881 74.4421 22.3933 74.4421 23.049Z" fill="#A16217"/>
<path d="M74.3924 21.181C73.2828 21.5844 72.0724 21.8366 70.8115 21.8871C64.4566 21.6349 59.4131 16.3896 59.4131 9.98431C59.4131 7.15993 60.3714 4.58773 62.0357 2.57031C68.8949 6.10079 73.7367 13.0609 74.3924 21.181Z" fill="#C27418"/>
<path d="M79.6377 9.98749C79.6377 14.9302 75.7038 19.0154 70.8115 19.2172C65.9193 19.0154 61.9854 14.9806 61.9854 9.98749C61.9854 4.99438 65.9193 0.959554 70.8115 0.757812C75.7038 0.959554 79.6377 4.99438 79.6377 9.98749Z" fill="#FD961A"/>
<path d="M1.66437 45.1409H1.51306C0.706095 45.1409 0 44.4348 0 43.6279V2.27087C0 1.46391 0.706095 0.757812 1.51306 0.757812C2.4209 0.757812 3.07656 1.46391 3.07656 2.27087V42.0644H24.3603C25.2681 42.0644 25.9238 42.7705 25.9238 43.6279C25.9238 44.4348 25.2177 45.1409 24.3603 45.1409H1.66437Z" fill="#FD961A"/>
<path d="M88.7666 7.26308V43.627C88.7666 44.4339 88.0606 45.14 87.2536 45.14C86.4466 45.14 85.7405 44.4339 85.7405 43.627V2.8752C85.5388 2.21954 85.7405 1.61432 86.2953 1.1604C87.0014 0.706479 88.0101 0.857785 88.464 1.56388L115.397 38.8861V2.67346C115.397 1.86649 116.103 1.1604 116.91 1.1604C117.817 1.1604 118.473 1.86649 118.473 2.67346V43.627C118.473 44.4339 117.767 45.14 116.91 45.14C116.405 45.14 116.002 44.9383 115.699 44.5853C115.649 44.5348 115.497 44.4339 115.447 44.3331L88.7666 7.26308Z" fill="#FD961A"/>
<path d="M131.334 2.27087C131.334 1.46391 132.04 0.757812 132.847 0.757812C133.755 0.757812 134.41 1.46391 134.41 2.27087V27.186C134.41 35.3565 141.068 41.9635 149.188 42.014C157.459 41.9635 164.117 35.3565 164.117 27.186V2.27087C164.117 1.46391 164.823 0.757812 165.63 0.757812C166.538 0.757812 167.193 1.46391 167.193 2.27087V27.186C167.193 37.0713 159.124 45.1409 149.188 45.1409C139.353 45.1409 131.283 37.0713 131.283 27.186V2.27087H131.334Z" fill="#FD961A"/>
<path d="M180.911 42.67L195.185 23.0507L180.911 3.48175C180.357 2.77565 180.457 1.76694 181.164 1.31302C181.87 0.758236 182.878 0.859106 183.332 1.5652L197.101 20.4785L210.87 1.5652C211.425 0.859106 212.333 0.758236 213.039 1.31302C213.745 1.76694 213.947 2.77565 213.341 3.48175L199.018 23.1011L213.341 42.7205C213.896 43.4266 213.745 44.3848 213.039 44.8892C212.736 45.0909 212.484 45.1918 212.131 45.1918C211.627 45.1918 211.173 44.9396 210.87 44.4857L197.101 25.6229L183.332 44.4857C183.08 44.9396 182.576 45.1918 182.122 45.1918C181.819 45.1918 181.466 45.0405 181.164 44.8892C180.457 44.3344 180.306 43.3761 180.911 42.67Z" fill="#FD961A"/>
</svg>
