<svg width="342" height="275" viewBox="0 0 342 275" fill="none" xmlns="http://www.w3.org/2000/svg">
<g clip-path="url(#clip0_1073_1119)">
<path d="M173.031 275.002C266.35 275.002 342 269.103 342 261.827C342 254.551 266.35 248.652 173.031 248.652C79.7118 248.652 4.06177 254.551 4.06177 261.827C4.06177 269.103 79.7118 275.002 173.031 275.002Z" fill="#3F3D56"/>
<path d="M316.561 237.35L318.144 248.941L307.059 249.995L308.642 235.77L316.561 237.35Z" fill="#A0616A"/>
<path d="M264.299 78.2383C264.299 78.2383 265.355 92.4635 265.355 92.9903C265.355 93.5172 257.964 129.87 257.964 129.87C257.964 129.87 247.406 149.891 257.964 149.364C268.522 148.837 265.355 130.397 265.355 130.397L276.441 99.8395L271.69 78.2383L264.299 78.2383Z" fill="#A0616A"/>
<path d="M281.72 237.35L280.136 248.941L291.222 249.995L289.638 235.77L281.72 237.35Z" fill="#A0616A"/>
<path d="M269.578 128.818L266.939 132.506C266.939 132.506 265.355 148.312 266.939 153.58C268.522 158.849 271.69 183.084 271.69 184.665C271.69 186.246 272.218 187.299 271.69 187.826C271.162 188.353 269.578 188.353 270.634 189.407C271.69 190.46 271.69 193.622 271.69 193.622V196.256L278.552 235.243C278.552 235.243 274.329 239.985 277.497 239.985C280.664 239.985 292.278 239.985 291.75 234.717L290.694 234.19C290.694 234.19 289.11 199.417 289.638 197.836C290.166 196.256 289.638 193.095 289.638 193.095C289.638 193.095 288.582 191.514 289.638 190.987C290.694 190.46 290.694 186.246 290.694 186.246L295.445 154.107C295.445 154.107 299.668 175.708 302.308 177.816C304.947 179.923 304.419 185.192 304.419 185.192L306.531 231.555C306.531 231.555 304.419 236.824 306.531 237.878C308.642 238.931 317.617 242.619 318.144 237.351C318.672 232.082 321.312 186.246 321.312 184.138C321.312 182.031 320.784 180.977 321.312 179.396C321.84 177.816 320.784 177.816 321.312 177.816C321.84 177.816 320.256 176.235 320.256 175.181V149.365C320.256 149.365 320.784 144.097 321.312 143.043C321.84 141.989 320.784 140.936 321.312 139.355C321.84 137.774 320.256 132.506 320.256 132.506L296.501 126.184L269.578 128.818Z" fill="#2F2E41"/>
<path d="M288.054 246.833C288.054 246.833 290.694 244.199 286.999 244.199C284.626 244.248 282.29 244.786 280.136 245.78L277.496 255.263C277.496 255.263 266.675 263.956 278.816 262.903C290.958 261.849 289.11 262.639 289.11 262.639C289.11 262.639 292.805 261.585 293.333 260.532C293.861 259.478 292.278 244.199 292.278 244.199C292.278 244.199 290.694 248.414 288.054 246.833Z" fill="#2F2E41"/>
<path d="M310.754 246.834C310.754 246.834 308.115 244.199 311.81 244.199C314.182 244.248 316.519 244.786 318.672 245.78L321.312 255.263C321.312 255.263 332.134 263.956 319.992 262.903C307.851 261.849 308.115 262.639 308.115 262.639C308.115 262.639 304.419 261.585 303.891 260.532C303.363 259.478 306.531 244.199 306.531 244.199C306.531 244.199 308.115 248.414 310.754 246.834Z" fill="#2F2E41"/>
<path d="M276.441 36.6154C284.021 36.6154 290.166 30.4825 290.166 22.9171C290.166 15.3517 284.021 9.21875 276.441 9.21875C268.861 9.21875 262.716 15.3517 262.716 22.9171C262.716 30.4825 268.861 36.6154 276.441 36.6154Z" fill="#A0616A"/>
<path d="M271.689 32.9287C271.689 32.9287 273.801 43.4659 273.801 45.0465C273.801 46.6271 282.775 51.3688 282.775 51.3688L292.805 38.7242C292.805 38.7242 286.47 29.7676 286.47 27.6602L271.689 32.9287Z" fill="#A0616A"/>
<path d="M279.608 46.6279C279.608 46.6279 275.007 45.4057 273.613 43.3825C273.613 43.3825 259.021 57.692 259.021 60.3263L270.634 80.8738C270.634 80.8738 270.634 88.2498 271.69 88.7767C272.746 89.3035 271.69 88.7766 271.69 90.8841C271.69 92.9915 268.523 106.69 269.578 108.797C270.634 110.905 271.69 109.324 270.634 112.485C269.578 115.646 266.939 132.506 266.939 132.506C266.939 132.506 276.441 129.345 290.166 134.613C303.891 139.882 320.256 132.506 320.256 132.506C320.256 132.506 316.033 123.023 317.089 119.861C318.145 116.7 314.449 110.905 314.449 110.905L311.81 62.4337C311.81 62.4337 315.505 40.8325 312.866 39.7788L307.587 37.6713L290.681 35.5977C290.681 35.5977 286.471 46.1011 279.608 46.6279Z" fill="#D0CDE1"/>
<path d="M264.299 56.6367L259.02 60.3247C259.02 60.3247 256.381 68.2276 259.02 71.9156C261.66 75.6037 262.715 80.8723 262.715 80.8723L273.273 79.8185L264.299 56.6367Z" fill="#D0CDE1"/>
<path d="M265.962 8.44157L263.581 7.4903C263.581 7.4903 268.559 2.0205 275.485 2.49615L273.537 0.355765C273.537 0.355765 278.298 -1.54676 282.627 3.44739C284.903 6.07271 287.535 9.15862 289.177 12.6349H291.726L290.662 14.9734L294.387 17.3119L290.564 16.8919C290.926 18.9108 290.802 20.9867 290.202 22.9484L290.305 24.7968C290.305 24.7968 285.874 17.9542 285.874 17.003V19.3811C285.874 19.3811 283.493 17.2408 283.493 15.8139L282.194 17.4786L281.545 14.8626L273.537 17.4786L274.835 15.3383L269.857 16.0517L271.805 13.4357C271.805 13.4357 266.178 16.5274 265.962 19.1434C265.745 21.7593 262.931 25.0888 262.931 25.0888L261.633 22.7106C261.633 22.7106 259.685 12.0088 265.962 8.44157Z" fill="#2F2E41"/>
<path d="M269.145 114.656H59.3701V261.727H269.145V114.656Z" fill="white"/>
<path d="M129.701 170.77H77.0293V262.537H129.701V170.77Z" fill="#3F3D56"/>
<path d="M100.96 176.273H86.772V189.474H100.96V176.273Z" fill="#F2F2F2"/>
<path d="M119.958 176.273H105.77V189.474H119.958V176.273Z" fill="#F2F2F2"/>
<path d="M100.96 194.273H86.772V207.954H100.96V194.273Z" fill="#F2F2F2"/>
<path d="M119.958 194.273H105.77V207.954H119.958V194.273Z" fill="#F2F2F2"/>
<path d="M123.003 226.173C124.853 226.173 126.352 224.677 126.352 222.831C126.352 220.985 124.853 219.488 123.003 219.488C121.153 219.488 119.654 220.985 119.654 222.831C119.654 224.677 121.153 226.173 123.003 226.173Z" fill="#FD961A"/>
<path d="M251.486 162.059H147.36V249.268H251.486V162.059Z" fill="#3F3D56"/>
<path d="M291.066 142.343H37.4487L54.3586 107.058L58.143 99.1577L63.0939 88.8261L66.8782 80.9257L71.2653 71.7734H271.084L273.675 80.9257L275.913 88.8261L278.839 99.1577L281.077 107.058L291.066 142.343Z" fill="#3F3D56"/>
<path d="M154.667 198.219H151.014V220.705H154.667V198.219Z" fill="#FD961A"/>
<path d="M154.667 201.559H151.014V204.293H154.667V201.559Z" fill="#F2F2F2"/>
<path d="M154.667 214.625H151.014V217.36H154.667V214.625Z" fill="#F2F2F2"/>
<path d="M165.323 198.219H156.494V220.705H165.323V198.219Z" fill="#FD961A"/>
<path d="M165.323 201.559H156.494V204.293H165.323V201.559Z" fill="#F2F2F2"/>
<path d="M165.323 214.625H156.494V217.36H165.323V214.625Z" fill="#F2F2F2"/>
<path d="M171.108 198.219H167.455V220.705H171.108V198.219Z" fill="#FD961A"/>
<path d="M171.108 201.559H167.455V204.293H171.108V201.559Z" fill="#F2F2F2"/>
<path d="M171.108 214.625H167.455V217.36H171.108V214.625Z" fill="#F2F2F2"/>
<path d="M176.588 198.219H172.935V220.705H176.588V198.219Z" fill="#FD961A"/>
<path d="M176.588 201.559H172.935V204.293H176.588V201.559Z" fill="#F2F2F2"/>
<path d="M176.588 214.625H172.935V217.36H176.588V214.625Z" fill="#F2F2F2"/>
<path d="M180.109 198.296L176.69 199.582L184.637 220.623L188.056 219.337L180.109 198.296Z" fill="#FD961A"/>
<path d="M181.29 201.425L177.872 202.711L178.838 205.27L182.257 203.984L181.29 201.425Z" fill="#F2F2F2"/>
<path d="M185.909 213.651L182.49 214.938L183.456 217.497L186.875 216.21L185.909 213.651Z" fill="#F2F2F2"/>
<path d="M248.137 198.219H239.308V220.705H248.137V198.219Z" fill="#FD961A"/>
<path d="M248.137 201.559H239.308V204.293H248.137V201.559Z" fill="#F2F2F2"/>
<path d="M248.137 214.625H239.308V217.36H248.137V214.625Z" fill="#F2F2F2"/>
<path d="M237.176 198.219H233.523V220.705H237.176V198.219Z" fill="#FD961A"/>
<path d="M237.176 201.559H233.523V204.293H237.176V201.559Z" fill="#F2F2F2"/>
<path d="M237.176 214.625H233.523V217.36H237.176V214.625Z" fill="#F2F2F2"/>
<path d="M231.696 198.219H228.042V220.705H231.696V198.219Z" fill="#FD961A"/>
<path d="M231.696 201.559H228.042V204.293H231.696V201.559Z" fill="#F2F2F2"/>
<path d="M231.696 214.625H228.042V217.36H231.696V214.625Z" fill="#F2F2F2"/>
<path d="M224.522 198.299L216.575 219.34L219.994 220.626L227.941 199.585L224.522 198.299Z" fill="#FD961A"/>
<path d="M223.341 201.425L222.374 203.984L225.793 205.271L226.759 202.712L223.341 201.425Z" fill="#F2F2F2"/>
<path d="M218.723 213.652L217.756 216.211L221.175 217.497L222.142 214.938L218.723 213.652Z" fill="#F2F2F2"/>
<path d="M251.486 220.703H147.36V222.83H251.486V220.703Z" fill="#F2F2F2"/>
<path d="M211.906 198.219H192.725V220.705H211.906V198.219Z" fill="#FD961A"/>
<path d="M207.187 203.078H197.444V207.332H207.187V203.078Z" fill="#F2F2F2"/>
<path d="M200.337 162.059H198.51V181.506H200.337V162.059Z" fill="#F2F2F2"/>
<path d="M199.423 184.542C201.105 184.542 202.468 183.182 202.468 181.503C202.468 179.825 201.105 178.465 199.423 178.465C197.742 178.465 196.378 179.825 196.378 181.503C196.378 183.182 197.742 184.542 199.423 184.542Z" fill="#F2F2F2"/>
<path d="M275.913 88.8262H63.0942L66.8786 80.9258H273.676L275.913 88.8262Z" fill="#FD961A"/>
<path d="M281.077 107.057H54.3589L58.1432 99.1562H278.839L281.077 107.057Z" fill="#FD961A"/>
<path d="M303.363 61.3789C303.363 61.3789 300.306 69.2242 300.945 76.9864C301.062 78.3762 301.531 79.7135 302.308 80.8727L264.857 98.6179C264.857 98.6179 247.935 100.366 252.158 107.742C256.381 115.119 271.69 104.054 271.69 104.054C271.69 104.054 311.81 98.259 314.977 92.4636C318.144 86.6681 320.256 62.4326 320.256 62.4326L303.363 61.3789Z" fill="#A0616A"/>
<path d="M304.947 39.7773H312.866C312.866 39.7773 318.672 40.8311 320.256 51.3682C321.84 61.9054 323.423 64.5397 321.84 64.5397C320.256 64.5397 301.252 64.0129 301.252 63.486C301.252 62.9591 304.947 39.7773 304.947 39.7773Z" fill="#D0CDE1"/>
<path d="M40.6176 197.166C63.0501 197.166 81.2352 179.016 81.2352 156.628C81.2352 134.239 63.0501 116.09 40.6176 116.09C18.1851 116.09 0 134.239 0 156.628C0 179.016 18.1851 197.166 40.6176 197.166Z" fill="#FD961A"/>
<path opacity="0.1" d="M40.6176 191.491C59.9096 191.491 75.5487 175.882 75.5487 156.628C75.5487 137.374 59.9096 121.766 40.6176 121.766C21.3257 121.766 5.68652 137.374 5.68652 156.628C5.68652 175.882 21.3257 191.491 40.6176 191.491Z" fill="black"/>
<path d="M38.9436 177.2V172.125C36.3736 172.075 33.7149 171.171 32.1641 169.915L33.2274 166.549C35.0704 167.927 37.3054 168.684 39.6082 168.709C42.7544 168.709 44.8813 166.649 44.8813 163.786C44.8813 161.022 43.1531 159.314 39.8741 157.807C35.3544 155.798 32.5628 153.487 32.5628 149.116C32.5628 144.946 35.1772 141.781 39.2538 141.027V135.953H42.001V140.826C44.0496 140.854 46.0478 141.464 47.7615 142.585L46.6536 145.901C45.01 144.778 43.0623 144.182 41.0705 144.192C37.6587 144.192 36.3736 146.503 36.3736 148.513C36.3736 151.125 38.0131 152.432 41.8682 154.24C46.4321 156.35 48.7364 158.963 48.7364 163.434C48.7364 167.403 46.2992 171.121 41.7351 171.974V177.2H38.9436Z" fill="#F2F2F2"/>
</g>
<defs>
<clipPath id="clip0_1073_1119">
<rect width="342" height="275" fill="white"/>
</clipPath>
</defs>
</svg>
